<svg width="29" height="30" viewBox="0 0 29 30" fill="none" xmlns="http://www.w3.org/2000/svg">
<g clip-path="url(#clip0_1_5519)">
<path d="M27.0647 5.21748L23.1324 1.28528C22.8854 1.03836 22.5571 0.902344 22.2078 0.902344H5.65174C4.93081 0.902344 4.34423 1.48892 4.34423 2.20985V15.1551H3.42478C2.4582 15.1551 1.67188 15.9415 1.67188 16.908V24.9252C1.67188 25.8918 2.4582 26.6782 3.42478 26.6782H17.2322C17.9532 26.6782 18.5397 26.0916 18.5397 25.3707V19.1351C18.5397 18.4141 17.9531 17.8275 17.2322 17.8275H3.42478C2.91776 17.8275 2.50532 17.4151 2.50532 16.9081C2.50532 16.4011 2.91776 15.9886 3.42478 15.9886H4.34423V16.4629C4.34423 16.693 4.53081 16.8796 4.76095 16.8796C4.9911 16.8796 5.17768 16.693 5.17768 16.4629V2.20985C5.17768 1.94843 5.39037 1.73579 5.65174 1.73579H21.7148V5.77305C21.7148 6.24845 22.1015 6.63522 22.5769 6.63522H26.6142V28.0431C26.6142 28.3045 26.4015 28.5171 26.1401 28.5171H5.65174C5.39032 28.5171 5.17768 28.3045 5.17768 28.0431C5.17768 27.8129 4.9911 27.6264 4.76095 27.6264C4.53081 27.6264 4.34423 27.8129 4.34423 28.0431C4.34423 28.7641 4.93081 29.3506 5.65174 29.3506H26.1401C26.8611 29.3506 27.4476 28.764 27.4476 28.0431V6.14204C27.4477 5.79283 27.3117 5.46445 27.0647 5.21748ZM3.42478 18.661H17.2322C17.4936 18.661 17.7062 18.8737 17.7062 19.1351V25.3707C17.7062 25.6321 17.4935 25.8448 17.2322 25.8448H3.42478C2.91776 25.8448 2.50532 25.4323 2.50532 24.9253V18.4C2.77274 18.5655 3.08779 18.661 3.42478 18.661ZM22.5483 5.77305V1.87986L26.4703 5.80178H22.5769C22.5612 5.80178 22.5483 5.78888 22.5483 5.77305Z" fill="#00204A"/>
<path d="M13.4792 24.437C13.7094 24.437 13.8959 24.2504 13.8959 24.0203V22.6349H14.7989C15.029 22.6349 15.2156 22.4483 15.2156 22.2182C15.2156 21.9881 15.029 21.8015 14.7989 21.8015H13.8959V20.8999H14.9128C15.1429 20.8999 15.3295 20.7133 15.3295 20.4831C15.3295 20.2529 15.1429 20.0664 14.9128 20.0664H13.4792C13.2491 20.0664 13.0625 20.2529 13.0625 20.4831V24.0202C13.0625 24.2504 13.2491 24.437 13.4792 24.437Z" fill="#00204A"/>
<path d="M9.10083 24.2757C9.1789 24.3533 9.28447 24.3967 9.39443 24.3967H9.39598C9.4256 24.3966 10.1237 24.3939 10.4026 24.389C11.4324 24.371 12.1798 23.4719 12.1798 22.2511C12.1798 20.9677 11.4512 20.1055 10.3667 20.1055H9.38743C9.27674 20.1055 9.17068 20.1495 9.0925 20.2278C9.01432 20.3062 8.97048 20.4123 8.9707 20.523V20.5257V20.5257V23.9238C8.9707 23.9524 8.97359 23.9804 8.97909 24.0074C8.98576 24.1084 9.02855 24.204 9.10083 24.2757ZM10.3667 20.9389C11.089 20.9389 11.3464 21.6167 11.3464 22.2511C11.3464 23.1408 10.8651 23.5474 10.3881 23.5557C10.2555 23.558 10.019 23.5599 9.80971 23.5612C9.80837 23.1523 9.80559 21.3642 9.80487 20.9389H10.3667Z" fill="#00204A"/>
<path d="M5.63938 24.4514C5.86952 24.4514 6.0561 24.2649 6.0561 24.0347V22.9014C6.26302 22.9003 6.49827 22.8992 6.63151 22.8992C7.42662 22.8992 8.07348 22.2613 8.07348 21.477C8.07348 20.6927 7.42662 20.0547 6.63151 20.0547H5.63938C5.52864 20.0547 5.42246 20.0988 5.34423 20.1772C5.26633 20.2553 5.22271 20.3612 5.22271 20.4714H5.22266V24.0346C5.22266 24.2649 5.40924 24.4514 5.63938 24.4514ZM6.63151 20.8882C6.96139 20.8882 7.24004 21.1579 7.24004 21.477C7.24004 21.7962 6.96139 22.0658 6.63151 22.0658C6.49916 22.0658 6.26685 22.0669 6.06071 22.068C6.0596 21.8551 6.05794 21.1109 6.05732 20.8882H6.63151V20.8882Z" fill="#00204A"/>
<path d="M13.4458 12.9861C12.4216 13.3094 11.3704 13.7568 10.8097 14.3356C10.347 14.8132 10.2632 15.3673 10.5796 15.8558C10.7943 16.1874 11.0895 16.3607 11.4215 16.3607C11.5489 16.3607 11.6817 16.3351 11.8175 16.2832C12.3071 16.096 12.836 15.5633 13.4342 14.6547C13.6274 14.3614 13.8229 14.0354 14.0175 13.6827C14.0884 13.6619 14.1606 13.6412 14.2345 13.6205C15.4106 13.2915 16.7411 13.0526 17.9088 12.9529C18.6206 13.6412 19.3564 14.1775 19.9836 14.3238C20.6736 14.4847 21.2207 14.1692 21.4467 13.4796C21.5835 13.062 21.426 12.6681 21.0251 12.4262C20.6129 12.1773 19.8967 12.0571 18.8967 12.0686C18.6837 12.071 18.4589 12.0797 18.225 12.0942C17.7758 11.6309 17.3084 11.0772 16.8583 10.4657C16.5095 9.99207 16.1978 9.51806 15.9342 9.0675C15.9629 8.96876 15.9901 8.87136 16.016 8.77568C16.3008 7.71926 16.4025 6.91043 16.318 6.37158C16.1959 5.59343 15.6937 5.48291 15.4834 5.47158C14.7675 5.43285 14.2852 5.79406 14.1935 6.43776C14.1206 6.94911 14.2926 7.65264 14.7046 8.52876C14.8025 8.73701 14.9124 8.95165 15.033 9.17085C14.9881 9.31509 14.9393 9.46516 14.8865 9.62135C14.5024 10.7578 13.9821 11.9688 13.4458 12.9861ZM11.4446 15.525C11.4149 15.5287 11.3647 15.535 11.2791 15.4027C11.2093 15.2951 11.2056 15.2138 11.2651 15.1029C11.4042 14.8435 11.8792 14.4796 12.7984 14.1037C12.1568 15.0987 11.6774 15.496 11.4446 15.525ZM20.6616 13.1918C20.661 13.1969 20.6593 13.2062 20.6547 13.2202C20.5506 13.5378 20.4108 13.5677 20.1729 13.5122C19.8825 13.4445 19.5137 13.2299 19.1023 12.9016C20.2163 12.9105 20.6049 13.1112 20.6616 13.1918ZM15.0186 6.55544C15.0356 6.43632 15.0546 6.30235 15.3717 6.30235C15.3916 6.30235 15.4128 6.30291 15.4351 6.30396C15.53 6.41959 15.5789 6.93405 15.3593 7.95218C15.1006 7.35905 14.9743 6.86632 15.0186 6.55544ZM15.5989 10.1117C15.7818 10.3928 15.9785 10.6767 16.1871 10.9599C16.4862 11.3663 16.8241 11.7882 17.1816 12.1909C16.7681 12.2408 16.3416 12.3052 15.9149 12.3827C15.6262 12.4351 15.1229 12.5339 14.5337 12.6809C14.6643 12.4099 14.7932 12.129 14.9193 11.8402C15.1699 11.2663 15.4003 10.679 15.5989 10.1117Z" fill="#00204A"/>
</g>
<defs>
<clipPath id="clip0_1_5519">
<rect width="28.4482" height="28.4482" fill="white" transform="translate(0.335938 0.902344)"/>
</clipPath>
</defs>
</svg>
