<svg width="20" height="20" viewBox="0 0 20 20" fill="none" xmlns="http://www.w3.org/2000/svg">
<g clip-path="url(#clip0_1_5569)">
<path d="M9.85547 2.08594C12.3586 2.08594 12.6586 2.09531 13.643 2.14219C14.2336 2.15156 14.8242 2.25469 15.3867 2.46094C15.7898 2.61094 16.1648 2.85469 16.4648 3.15469C16.7742 3.45469 17.018 3.82969 17.168 4.23281C17.3742 4.78594 17.4867 5.37656 17.4867 5.97656C17.5336 6.97031 17.543 7.27031 17.543 9.76406C17.543 12.2578 17.5336 12.5578 17.4867 13.5422C17.4773 14.1328 17.3742 14.7234 17.168 15.2859C16.8492 16.1016 16.2023 16.7484 15.3867 17.0672C14.8242 17.2734 14.243 17.3859 13.643 17.3859C12.6492 17.4234 12.3586 17.4422 9.85547 17.4422C7.35234 17.4422 7.05234 17.4328 6.06797 17.3859C5.47734 17.3766 4.88672 17.2641 4.32422 17.0672C3.92109 16.9172 3.54609 16.6734 3.24609 16.3641C2.93672 16.0641 2.69297 15.6891 2.54297 15.2859C2.33364 14.7283 2.2257 14.1378 2.22422 13.5422C2.17734 12.5672 2.16797 12.2672 2.16797 9.76406C2.16797 7.26094 2.17734 6.97031 2.22422 5.97656C2.23359 5.38594 2.33672 4.79531 2.54297 4.24219C2.69297 3.83906 2.93672 3.46406 3.24609 3.16406C3.55547 2.85469 3.92109 2.61094 4.32422 2.46094C4.88672 2.25469 5.46797 2.15156 6.06797 2.14219C7.05234 2.09531 7.35234 2.08594 9.85547 2.08594ZM9.85547 0.398438C7.30547 0.398438 6.98672 0.407813 5.99297 0.454687C5.21484 0.464062 4.44609 0.614063 3.71484 0.895312C3.09058 1.1334 2.52339 1.50018 2.05015 1.97181C1.57691 2.44344 1.20819 3.00936 0.967969 3.63281C0.696094 4.35469 0.555469 5.12344 0.536719 5.90156C0.489844 6.90469 0.480469 7.22344 0.480469 9.76406C0.480469 12.3047 0.489844 12.6234 0.536719 13.6266C0.555469 14.4047 0.696094 15.1734 0.977344 15.9047C1.21857 16.526 1.58655 17.0903 2.05787 17.5617C2.52918 18.033 3.09349 18.401 3.71484 18.6422C4.44609 18.9141 5.21484 19.0547 5.99297 19.0734C6.99609 19.1203 7.31484 19.1297 9.85547 19.1297C12.3961 19.1297 12.7242 19.1203 13.718 19.0734C14.4961 19.0547 15.2648 18.9141 15.9961 18.6422C16.6175 18.401 17.1818 18.033 17.6531 17.5617C18.1244 17.0903 18.4924 16.526 18.7336 15.9047C19.0055 15.1734 19.1555 14.4047 19.1742 13.6266C19.2211 12.6234 19.2305 12.3047 19.2305 9.76406C19.2305 7.22344 19.2211 6.89531 19.1742 5.90156C19.1602 5.12546 19.0111 4.35774 18.7336 3.63281C18.4939 3.01058 18.1264 2.44548 17.6549 1.97398C17.1834 1.50247 16.6183 1.13502 15.9961 0.895312C15.2648 0.623438 14.4961 0.473437 13.718 0.454687C12.7242 0.407813 12.4055 0.398438 9.85547 0.398438ZM9.85547 4.95469C7.20234 4.95469 5.04609 7.11094 5.04609 9.76406C5.04609 12.4172 7.20234 14.5734 9.86484 14.5734C12.518 14.5734 14.6742 12.4172 14.6742 9.76406C14.671 8.4879 14.162 7.26507 13.2587 6.36357C12.3554 5.46207 11.1316 4.95543 9.85547 4.95469ZM9.85547 12.8859C8.13047 12.8859 6.73359 11.4891 6.73359 9.76406C6.73359 8.03906 8.13047 6.63281 9.85547 6.63281C11.5805 6.63281 12.9773 8.02969 12.9773 9.75469V9.76406C12.9773 11.4891 11.5805 12.8859 9.85547 12.8859ZM14.8617 3.64219C15.4805 3.64219 15.9867 4.14844 15.9867 4.76719C15.9867 5.38594 15.4805 5.89219 14.8617 5.89219C14.243 5.89219 13.7461 5.38594 13.7367 4.77656C13.7367 4.14844 14.2336 3.64219 14.8617 3.64219C14.8523 3.64219 14.8523 3.64219 14.8617 3.64219Z" fill="white"/>
</g>
<defs>
<clipPath id="clip0_1_5569">
<rect width="18.75" height="18.75" fill="white" transform="translate(0.480469 0.390625)"/>
</clipPath>
</defs>
</svg>
