<svg width="20" height="20" viewBox="0 0 20 20" fill="none" xmlns="http://www.w3.org/2000/svg">
<g clip-path="url(#clip0_1_5572)">
<path d="M18.8263 5.47238C18.592 4.69425 17.9639 4.09425 17.1763 3.89738C15.7138 3.53175 9.85448 3.53175 9.85448 3.53175C9.85448 3.53175 4.09823 3.50363 2.63573 3.86925C1.80135 4.0755 1.12635 4.6755 0.835726 5.47238C0.441976 6.86925 0.479476 9.76612 0.479476 9.76612C0.479476 9.76612 0.441976 12.6536 0.835726 14.0505C1.12635 14.8568 1.80135 15.4568 2.63573 15.6536C4.09823 16.0286 9.8451 16.0005 9.8451 16.0005C9.8451 16.0005 15.592 16.0193 17.0639 15.6536C17.4701 15.5569 17.8455 15.3593 18.1552 15.0791C18.4649 14.7989 18.6989 14.4451 18.8357 14.0505C19.2295 12.6724 19.2295 9.76612 19.2295 9.76612C19.2295 9.76612 19.2201 6.86925 18.8263 5.47238ZM7.6326 13.338V6.213L12.9763 9.7755L7.6326 13.338Z" fill="white"/>
</g>
<defs>
<clipPath id="clip0_1_5572">
<rect width="18.75" height="18.75" fill="white" transform="translate(0.480469 0.390625)"/>
</clipPath>
</defs>
</svg>
