<svg width="27" height="32" viewBox="0 0 27 32" fill="none" xmlns="http://www.w3.org/2000/svg">
<path d="M26.4982 15.6507C23.821 11.118 18.836 8.3024 13.5095 8.3024C8.17367 8.3024 3.19791 11.118 0.520777 15.6507C0.457333 15.7567 0.423828 15.8779 0.423828 16.0015C0.423828 16.125 0.457333 16.2462 0.520777 16.3523C3.19791 20.8849 8.17367 23.7005 13.5095 23.7005C18.8453 23.7005 23.821 20.8849 26.4982 16.3523C26.5616 16.2462 26.5951 16.125 26.5951 16.0015C26.5951 15.8779 26.5616 15.7567 26.4982 15.6507ZM1.92396 16.0107C3.32715 13.7951 5.34884 12.0688 7.69364 10.9795C6.52124 12.3273 5.81041 14.0905 5.81041 16.0107C5.81041 17.9308 6.52124 19.694 7.69364 21.0418C5.3298 19.9496 3.3278 18.2039 1.92396 16.0107ZM13.5095 22.325C10.0292 22.325 7.19514 19.491 7.19514 16.0107C7.19514 12.5304 10.0292 9.69635 13.5095 9.69635C16.9897 9.69635 19.8238 12.5304 19.8238 16.0107C19.8238 19.491 16.9897 22.325 13.5095 22.325ZM19.3253 21.0326C20.4977 19.6848 21.2085 17.9216 21.2085 16.0015C21.2085 14.0813 20.4977 12.3181 19.3253 10.9703C21.6701 12.0596 23.6918 13.7859 25.095 16.0015C23.6918 18.217 21.6701 19.9525 19.3253 21.0326ZM13.5095 11.4965C12.6166 11.4965 11.7439 11.7612 11.0015 12.2573C10.2592 12.7533 9.68057 13.4583 9.3389 14.2832C8.99723 15.108 8.90783 16.0157 9.08201 16.8914C9.2562 17.767 9.68613 18.5714 10.3175 19.2027C10.9488 19.834 11.7531 20.264 12.6288 20.4381C13.5045 20.6123 14.4121 20.5229 15.237 20.1813C16.0618 19.8396 16.7669 19.261 17.2629 18.5186C17.7589 17.7763 18.0237 16.9035 18.0237 16.0107C18.0237 13.5182 15.9927 11.4965 13.5095 11.4965ZM13.5095 19.1402C11.7832 19.1402 10.38 17.737 10.38 16.0107C10.38 14.2844 11.7832 12.8812 13.5095 12.8812C15.2358 12.8812 16.6389 14.2844 16.6389 16.0107C16.6389 17.737 15.2358 19.1402 13.5095 19.1402ZM13.5095 13.1582C11.9401 13.1582 10.6569 14.4321 10.6569 16.0107C10.6569 16.3892 10.9708 16.703 11.3493 16.703C11.7278 16.703 12.0417 16.3892 12.0417 16.0107C12.0417 15.2075 12.6971 14.5429 13.5095 14.5429C13.888 14.5429 14.2018 14.229 14.2018 13.8505C14.2018 13.472 13.888 13.1582 13.5095 13.1582ZM23.701 21.1526C23.3225 21.1526 23.0087 21.4665 23.0087 21.845V24.8729H20.5715V24.1159C20.5715 23.7374 20.2577 23.4236 19.8792 23.4236C19.5007 23.4236 19.1868 23.7374 19.1868 24.1159V29.9687H7.83211V24.1159C7.83211 23.7374 7.51824 23.4236 7.13975 23.4236C6.76126 23.4236 6.44739 23.7374 6.44739 24.1159V24.8729H4.01028V21.845C4.01028 21.4665 3.69641 21.1526 3.31791 21.1526C2.93942 21.1526 2.62555 21.4665 2.62555 21.845V30.661C2.62555 31.0395 2.93942 31.3534 3.31791 31.3534H23.701C24.0795 31.3534 24.3934 31.0395 24.3934 30.661V21.845C24.3934 21.4665 24.0795 21.1526 23.701 21.1526ZM6.44739 29.9687H4.01028V28.8055H6.44739V29.9687ZM6.44739 27.4208H4.01028V26.2576H6.44739V27.4208ZM23.0087 29.9687H20.5715V28.8055H23.0087V29.9687ZM23.0087 27.4208H20.5715V26.2576H23.0087V27.4208ZM3.31791 10.8595C3.69641 10.8595 4.01028 10.5457 4.01028 10.1672V7.13924H6.44739V7.89622C6.44739 8.27471 6.76126 8.58858 7.13975 8.58858C7.51824 8.58858 7.83211 8.27471 7.83211 7.89622V2.05269H19.1868V7.90545C19.1868 8.28394 19.5007 8.59781 19.8792 8.59781C20.2577 8.59781 20.5715 8.28394 20.5715 7.90545V7.14847H23.0087V10.1764C23.0087 10.5549 23.3225 10.8688 23.701 10.8688C24.0795 10.8688 24.3934 10.5549 24.3934 10.1764V1.36033C24.3934 0.981839 24.0795 0.667969 23.701 0.667969H3.31791C2.93942 0.667969 2.62555 0.981839 2.62555 1.36033V10.1764C2.62555 10.5549 2.93019 10.8595 3.31791 10.8595ZM20.5715 2.05269H23.0087V3.21586H20.5715V2.05269ZM20.5715 4.60058H23.0087V5.76374H20.5715V4.60058ZM4.01028 2.05269H6.44739V3.21586H4.01028V2.05269ZM4.01028 4.60058H6.44739V5.76374H4.01028V4.60058Z" fill="#F4D059"/>
</svg>
