<svg width="16" height="16" viewBox="0 0 16 16" fill="none" xmlns="http://www.w3.org/2000/svg">
<path fill-rule="evenodd" clip-rule="evenodd" d="M7.85547 15.0625C4.35547 11.4955 2.60547 8.7455 2.60547 6.8125C2.60547 3.91301 4.95597 1.5625 7.85547 1.5625C10.755 1.5625 13.1055 3.91301 13.1055 6.8125C13.1055 8.7455 11.3555 11.4955 7.85547 15.0625ZM7.85547 13.4875C10.6055 10.5563 11.9805 8.33128 11.9805 6.8125C11.9805 4.53433 10.1336 2.6875 7.85547 2.6875C5.57729 2.6875 3.73047 4.53433 3.73047 6.8125C3.73047 8.33128 5.10547 10.5563 7.85547 13.4875ZM7.85547 9.0625C6.61283 9.0625 5.60547 8.05514 5.60547 6.8125C5.60547 5.56986 6.61283 4.5625 7.85547 4.5625C9.09811 4.5625 10.1055 5.56986 10.1055 6.8125C10.1055 8.05514 9.09811 9.0625 7.85547 9.0625ZM7.85547 7.9375C8.47679 7.9375 8.98047 7.43382 8.98047 6.8125C8.98047 6.19118 8.47679 5.6875 7.85547 5.6875C7.23415 5.6875 6.73047 6.19118 6.73047 6.8125C6.73047 7.43382 7.23415 7.9375 7.85547 7.9375Z" fill="white"/>
</svg>
