<svg width="16" height="16" viewBox="0 0 16 16" fill="none" xmlns="http://www.w3.org/2000/svg">
<path d="M14.6055 8.3125C14.6055 4.58458 11.5834 1.5625 7.85547 1.5625V2.6875C10.9621 2.6875 13.4805 5.2059 13.4805 8.3125H14.6055Z" fill="white"/>
<path fill-rule="evenodd" clip-rule="evenodd" d="M1.11522 4.8389C1.06072 5.5701 1.24142 6.25829 1.49097 6.93215C2.00728 8.32573 2.79322 9.55873 3.74552 10.6942C5.03342 12.2255 6.57086 13.4384 8.3722 14.313C9.18395 14.7058 10.0244 15.0098 10.9365 15.0585C11.5618 15.0929 12.0735 14.8943 12.5486 14.4449C12.7556 14.249 12.9681 14.0303 13.181 13.8112C13.2877 13.7015 13.3946 13.5915 13.5009 13.4843C13.9713 13.0111 13.9741 12.4348 13.5066 11.9645C12.9501 11.4025 12.3908 10.8434 11.8286 10.2871C11.3697 9.83114 10.796 9.83401 10.337 10.2871C10.1978 10.4252 10.0871 10.5314 9.98288 10.6315C9.82519 10.783 9.68209 10.9204 9.4766 11.1328C9.38195 11.2302 9.33386 11.2417 9.1869 11.1872C9.03993 11.1328 8.72222 10.9636 8.50422 10.8288C7.49169 10.1951 6.64265 9.375 5.89114 8.45168C5.51825 7.99289 5.18552 7.50255 4.95605 6.952C4.90728 6.84017 4.91589 6.76562 5.00768 6.67673C5.1244 6.56387 5.22006 6.4724 5.30848 6.38785C5.48515 6.21893 5.633 6.07755 5.86238 5.84825C6.34139 5.36652 6.33853 4.80163 5.85951 4.31703C5.67779 4.13345 5.49479 3.95115 5.31222 3.76928L5.31077 3.76783C5.22005 3.67746 5.12945 3.5872 5.03915 3.49694C4.75807 3.21308 4.47693 2.92916 4.19298 2.65104C3.73404 2.20085 3.1575 2.19798 2.69856 2.65104C2.69856 2.65104 1.9999 3.31662 1.64873 3.68905C1.29756 4.06149 1.14964 4.38871 1.11522 4.8389ZM3.62384 3.67159C3.5258 3.57547 3.51511 3.56498 3.44687 3.56498C3.37718 3.56498 3.3418 3.5979 3.27741 3.65782C3.26703 3.66748 3.2559 3.67784 3.24375 3.68887C3.15621 3.76837 2.47668 4.44941 2.47668 4.44941C2.47668 4.44941 2.30385 4.62489 2.25009 4.79474C2.19634 4.96459 2.22983 5.37306 2.27631 5.60589C2.65543 7.50491 4.0053 9.37603 5.20272 10.6404C6.41924 11.925 8.15232 13.1898 10.2145 13.8265C10.4761 13.9073 11.161 13.9743 11.3714 13.8943C11.5818 13.8144 11.7853 13.623 11.7853 13.623L12.3784 13.0184C12.3784 13.0184 12.5659 12.8493 12.5659 12.7457C12.5659 12.6421 12.5138 12.575 12.4433 12.5043C11.7729 11.8306 11.4034 11.458 11.335 11.3863L11.3227 11.3735C11.2177 11.2635 11.1678 11.2111 11.0782 11.2111C10.992 11.2111 10.9064 11.3013 10.8518 11.3589L10.8396 11.3716C10.1287 12.1129 9.88504 12.3066 9.44997 12.3412C8.73842 12.3976 7.3567 11.6277 5.89389 10.1441C4.43109 8.66056 3.72605 7.23646 3.80185 6.70998C3.8733 6.21368 4.14541 5.94906 4.22099 5.87556L4.23251 5.86427C4.28578 5.81079 4.85724 5.26394 4.85724 5.26394C4.85724 5.26394 4.9814 5.15245 4.9814 5.08798C4.9814 5.028 4.95468 5.00136 4.91752 4.9643L4.909 4.95578C4.19659 4.23918 3.78976 3.83211 3.68851 3.73457C3.66337 3.71034 3.64205 3.68944 3.62384 3.67159Z" fill="white"/>
<path d="M7.85547 3.8125C10.3407 3.8125 12.3555 5.82722 12.3555 8.3125H11.2305C11.2305 6.44854 9.71943 4.9375 7.85547 4.9375V3.8125Z" fill="white"/>
</svg>
